<svg width="70" height="70" viewBox="0 0 70 70" fill="none" xmlns="http://www.w3.org/2000/svg">
<rect width="70" height="70" fill="#DEDEDE" fill-opacity="0.37"/>
<g filter="url(#filter0_f)">
<g clip-path="url(#clip0)">
<path d="M59.9997 34.9999C59.9997 48.807 48.807 60 35 60C21.1928 60 10 48.807 10 34.9999C10 21.1928 21.1928 10 35 10C48.8069 10 59.9997 21.1928 59.9997 34.9999Z" fill="#BEBEBE"/>
<path d="M54.692 35.0001C54.692 45.8751 45.8756 54.6923 35 54.6923C24.1246 54.6923 15.3076 45.8751 15.3076 35.0001C15.3076 24.1243 24.1246 15.3077 35 15.3077C45.8757 15.3077 54.692 24.1241 54.692 35.0001Z" fill="#BEBEBE"/>
<path d="M33.5395 41.6784L35.1633 35.564L39.0077 34.1595L39.964 30.5661L39.9313 30.4769L36.1471 31.8594L38.8737 21.5927H31.1409L27.5752 34.991L24.598 36.0786L23.6143 39.7832L26.5891 38.6965L24.4876 46.5928H45.0675L46.3868 41.6784H33.5395Z" fill="white"/>
</g>
</g>
<defs>
<filter id="filter0_f" x="6" y="6" width="58" height="58" filterUnits="userSpaceOnUse" color-interpolation-filters="sRGB">
<feFlood flood-opacity="0" result="BackgroundImageFix"/>
<feBlend mode="normal" in="SourceGraphic" in2="BackgroundImageFix" result="shape"/>
<feGaussianBlur stdDeviation="2" result="effect1_foregroundBlur"/>
</filter>
<clipPath id="clip0">
<rect x="10" y="10" width="50" height="50" fill="white"/>
</clipPath>
</defs>
</svg>
